<svg width="59" height="18" viewBox="0 0 59 18" fill="none" xmlns="http://www.w3.org/2000/svg">
<path d="M11.976 14.024H5.688L4.68 17H0.384L6.48 0.151999H11.232L17.328 17H12.984L11.976 14.024ZM10.92 10.856L8.832 4.688L6.768 10.856H10.92ZM30.1513 0.151999V3.44H23.2873V6.992H28.4233V10.184H23.2873V17H19.1833V0.151999H30.1513ZM51.3883 0.151999V17H47.2843V6.896L43.5163 17H40.2043L36.4123 6.872V17H32.3083V0.151999H37.1563L41.8843 11.816L46.5643 0.151999H51.3883ZM56.2596 17.192C55.5396 17.192 54.9476 16.984 54.4836 16.568C54.0356 16.136 53.8116 15.608 53.8116 14.984C53.8116 14.344 54.0356 13.808 54.4836 13.376C54.9476 12.944 55.5396 12.728 56.2596 12.728C56.9636 12.728 57.5396 12.944 57.9876 13.376C58.4516 13.808 58.6836 14.344 58.6836 14.984C58.6836 15.608 58.4516 16.136 57.9876 16.568C57.5396 16.984 56.9636 17.192 56.2596 17.192Z" fill="#FF4C61"/>
</svg>
