<svg width="84" height="84" viewBox="0 0 84 84" fill="none" xmlns="http://www.w3.org/2000/svg">
<circle cx="42" cy="42" r="39.5" stroke="#FF4C61" stroke-width="5"/>
<path d="M23.976 47.024H17.688L16.68 50H12.384L18.48 33.152H23.232L29.328 50H24.984L23.976 47.024ZM22.92 43.856L20.832 37.688L18.768 43.856H22.92ZM42.1513 33.152V36.44H35.2873V39.992H40.4233V43.184H35.2873V50H31.1833V33.152H42.1513ZM63.3883 33.152V50H59.2843V39.896L55.5163 50H52.2043L48.4123 39.872V50H44.3083V33.152H49.1563L53.8843 44.816L58.5643 33.152H63.3883ZM68.2596 50.192C67.5396 50.192 66.9476 49.984 66.4836 49.568C66.0356 49.136 65.8116 48.608 65.8116 47.984C65.8116 47.344 66.0356 46.808 66.4836 46.376C66.9476 45.944 67.5396 45.728 68.2596 45.728C68.9636 45.728 69.5396 45.944 69.9876 46.376C70.4516 46.808 70.6836 47.344 70.6836 47.984C70.6836 48.608 70.4516 49.136 69.9876 49.568C69.5396 49.984 68.9636 50.192 68.2596 50.192Z" fill="#FF4C61"/>
</svg>
